<svg xmlns="http://www.w3.org/2000/svg" xmlns:xlink="http://www.w3.org/1999/xlink" contentStyleType="text/css" data-diagram-type="SEQUENCE" height="161px" preserveAspectRatio="none" style="width:381px;height:161px;background:#FFFFFF;" version="1.1" viewBox="0 0 381 161" width="381px" zoomAndPan="magnify"><defs/><g><g><title>GPIO</title><rect fill="#000000" fill-opacity="0.00000" height="115.118" width="8" x="25.1709" y="39.0679"/><line style="stroke:#181818;stroke-width:0.5;stroke-dasharray:5.0,5.0;" x1="29" x2="29" y1="39.0679" y2="154.186"/></g><g><title>GPIO ISR</title><rect fill="#000000" fill-opacity="0.00000" height="115.118" width="8" x="123.232" y="39.0679"/><line style="stroke:#181818;stroke-width:0.5;stroke-dasharray:5.0,5.0;" x1="126.6711" x2="126.6711" y1="39.0679" y2="154.186"/></g><g><title>EventGroup</title><rect fill="#000000" fill-opacity="0.00000" height="115.118" width="8" x="215.8948" y="39.0679"/><line style="stroke:#181818;stroke-width:0.5;stroke-dasharray:5.0,5.0;" x1="219.7929" x2="219.7929" y1="39.0679" y2="154.186"/></g><g><title>Task/Feature</title><rect fill="#000000" fill-opacity="0.00000" height="115.118" width="8" x="321.7104" y="39.0679"/><line style="stroke:#181818;stroke-width:0.5;stroke-dasharray:5.0,5.0;" x1="324.9966" x2="324.9966" y1="39.0679" y2="154.186"/></g><g class="participant participant-head" data-participant="GPIO"><rect fill="#E2E2F0" height="33.0679" rx="2.5" ry="2.5" style="stroke:#181818;stroke-width:0.5;" width="48.3419" x="5" y="5"/><text fill="#000000" font-family="sans-serif" font-size="14" lengthAdjust="spacing" textLength="34.3419" x="12" y="26.9659">GPIO</text></g><g class="participant participant-head" data-participant="GPIO ISR"><rect fill="#E2E2F0" height="33.0679" rx="2.5" ry="2.5" style="stroke:#181818;stroke-width:0.5;" width="73.1218" x="90.6711" y="5"/><text fill="#000000" font-family="sans-serif" font-size="14" lengthAdjust="spacing" textLength="59.1218" x="97.6711" y="26.9659">GPIO ISR</text></g><g class="participant participant-head" data-participant="EventGroup"><rect fill="#E2E2F0" height="33.0679" rx="2.5" ry="2.5" style="stroke:#181818;stroke-width:0.5;" width="92.2037" x="173.7929" y="5"/><text fill="#000000" font-family="sans-serif" font-size="14" lengthAdjust="spacing" textLength="78.2037" x="180.7929" y="26.9659">EventGroup</text></g><g class="participant participant-head" data-participant="Task/Feature"><rect fill="#E2E2F0" height="33.0679" rx="2.5" ry="2.5" style="stroke:#181818;stroke-width:0.5;" width="99.4277" x="275.9966" y="5"/><text fill="#000000" font-family="sans-serif" font-size="14" lengthAdjust="spacing" textLength="85.4277" x="282.9966" y="26.9659">Task/Feature</text></g><g class="message" data-participant-1="GPIO" data-participant-2="GPIO ISR"><polygon fill="#181818" points="115.232,68.7739,125.232,72.7739,115.232,76.7739,119.232,72.7739" style="stroke:#181818;stroke-width:1;"/><line style="stroke:#181818;stroke-width:1;" x1="29.1709" x2="121.232" y1="72.7739" y2="72.7739"/><text fill="#000000" font-family="sans-serif" font-size="13" lengthAdjust="spacing" textLength="74.0611" x="36.1709" y="66.9649">Falling Edge</text></g><g class="message" data-participant-1="GPIO ISR" data-participant-2="EventGroup"><polygon fill="#181818" points="207.8948,100.4799,217.8948,104.4799,207.8948,108.4799,211.8948,104.4799" style="stroke:#181818;stroke-width:1;"/><line style="stroke:#181818;stroke-width:1;" x1="127.232" x2="213.8948" y1="104.4799" y2="104.4799"/><text fill="#000000" font-family="sans-serif" font-size="13" lengthAdjust="spacing" textLength="56.4331" x="134.232" y="98.6709">Set Event</text></g><g class="message" data-participant-1="EventGroup" data-participant-2="Task/Feature"><polygon fill="#181818" points="313.7104,132.186,323.7104,136.186,313.7104,140.186,317.7104,136.186" style="stroke:#181818;stroke-width:1;"/><line style="stroke:#181818;stroke-width:1;" x1="219.8948" x2="319.7104" y1="136.186" y2="136.186"/><text fill="#000000" font-family="sans-serif" font-size="13" lengthAdjust="spacing" textLength="54.535" x="226.8948" y="130.377">Wake Up</text></g><!--SRC=[oyXCILL8oyylISgluE9o3_3qLz2rKr02Cpo3WvIit19pSZBpqXLSKz9JkH3Y85MkPQbv9Uv5-QK5Li6f9H0k5q8GR518Od6slbjgOabfKQgILNXYTgf2Q040]--></g></svg>